<svg viewBox="0 0 420 260" xmlns="http://www.w3.org/2000/svg">
  <defs>
    <style>
      .bg { fill: #05070a; }
      .grid-fine { stroke: #1d2f3f; stroke-width: 0.25; }
      .grid-major { stroke: #1d2f3f; stroke-width: 0.5; }
      .contour { fill: none; stroke: #6fa8ff; stroke-width: 2; stroke-linecap: round; stroke-linejoin: round; }
      .hidden { fill: none; stroke: #6fa8ff; stroke-width: 1; stroke-dasharray: 6 3; }
      .section { fill: rgba(111, 168, 255, 0.16); stroke: #6fa8ff; stroke-width: 1.2; }
      .dim { fill: none; stroke: #6fa8ff; stroke-width: 1; stroke-linecap: round; }
      .dim-arrow { fill: #6fa8ff; }
      .dim-text { fill: #6fa8ff; font-family: "SF Mono", monospace; font-size: 9px; }
      .axis { stroke: #6fa8ff; stroke-width: 0.6; stroke-dasharray: 6 3; }
      .centerline { stroke: #6fa8ff; stroke-width: 0.8; stroke-dasharray: 4 3; }
    </style>
  </defs>

  <rect class="bg" x="0" y="0" width="420" height="260" />

  <!-- !5B:0 -->
  <g opacity="0.35">
    <g class="grid-fine">
      <line x1="20" y1="30" x2="20" y2="230" />
      <line x1="40" y1="30" x2="40" y2="230" />
      <line x1="60" y1="30" x2="60" y2="230" />
      <line x1="80" y1="30" x2="80" y2="230" />
      <line x1="100" y1="30" x2="100" y2="230" />
      <line x1="120" y1="30" x2="120" y2="230" />
      <line x1="140" y1="30" x2="140" y2="230" />
      <line x1="160" y1="30" x2="160" y2="230" />
      <line x1="180" y1="30" x2="180" y2="230" />
      <line x1="200" y1="30" x2="200" y2="230" />
      <line x1="220" y1="30" x2="220" y2="230" />
      <line x1="240" y1="30" x2="240" y2="230" />
      <line x1="260" y1="30" x2="260" y2="230" />
      <line x1="280" y1="30" x2="280" y2="230" />
      <line x1="300" y1="30" x2="300" y2="230" />
      <line x1="320" y1="30" x2="320" y2="230" />
      <line x1="340" y1="30" x2="340" y2="230" />
      <line x1="360" y1="30" x2="360" y2="230" />
      <line x1="380" y1="30" x2="380" y2="230" />
      <line x1="400" y1="30" x2="400" y2="230" />

      <line x1="20" y1="40" x2="400" y2="40" />
      <line x1="20" y1="60" x2="400" y2="60" />
      <line x1="20" y1="80" x2="400" y2="80" />
      <line x1="20" y1="100" x2="400" y2="100" />
      <line x1="20" y1="120" x2="400" y2="120" />
      <line x1="20" y1="140" x2="400" y2="140" />
      <line x1="20" y1="160" x2="400" y2="160" />
      <line x1="20" y1="180" x2="400" y2="180" />
      <line x1="20" y1="200" x2="400" y2="200" />
      <line x1="20" y1="220" x2="400" y2="220" />
    </g>
    <g class="grid-major">
      <line x1="60" y1="30" x2="60" y2="230" />
      <line x1="140" y1="30" x2="140" y2="230" />
      <line x1="220" y1="30" x2="220" y2="230" />
      <line x1="300" y1="30" x2="300" y2="230" />
      <line x1="380" y1="30" x2="380" y2="230" />

      <line x1="20" y1="60" x2="400" y2="60" />
      <line x1="20" y1="120" x2="400" y2="120" />
      <line x1="20" y1="180" x2="400" y2="180" />
      <line x1="20" y1="220" x2="400" y2="220" />
    </g>
  </g>

  <!-- A520O ;8=8O -->
  <line class="axis" x1="210" y1="30" x2="210" y2="230" />

  <!-- =>3><>4C;L=K9 :0@:0A=K9 C75; 2 3D-A5G5=88 -->

  <!-- A=>2=0O ?@>AB@0=AB25==0O @0<0 (0:A>=><5B@8O) -->
  <g>
    <!-- =86=89 ?@O<>C3>;L=K9 :>=BC@ -->
    <path
      class="contour"
      d="
        M90 190
        L150 160
        H280
        L320 190
        L260 220
        H130
        Z"
    />

    <!-- 25@E=89 ?@O<>C3>;L=K9 :>=BC@ -->
    <path
      class="contour"
      d="
        M110 150
        L160 130
        H270
        L300 150
        L250 170
        H140
        Z"
    />

    <!-- AB>9:8 :0@:0A0 -->
    <line class="contour" x1="90" y1="190" x2="110" y2="150" />
    <line class="contour" x1="150" y1="160" x2="160" y2="130" />
    <line class="contour" x1="280" y1="160" x2="270" y2="130" />
    <line class="contour" x1="320" y1="190" x2="300" y2="150" />
    <line class="contour" x1="260" y1="220" x2="250" y2="170" />
    <line class="contour" x1="130" y1="220" x2="140" y2="170" />
  </g>

  <!-- =CB@5==85 <>4C;L=K5 2AB02:8 (A5G5=8O >B45;L=KE @0<) -->
  <g>
    <!-- ;520O 2AB02:0 (A5G5=85) -->
    <path
      class="section"
      d="
        M130 180
        L150 168
        L150 148
        L130 158
        Z"
    />

    <!-- F5=B@0;L=0O 2AB02:0 (A5G5=85) -->
    <path
      class="section"
      d="
        M190 174
        L220 160
        L220 140
        L190 154
        Z"
    />

    <!-- ?@020O 2AB02:0 (A5G5=85) -->
    <path
      class="section"
      d="
        M250 168
        L280 154
        L280 134
        L250 148
        Z"
    />
  </g>

  <!-- =CB@5==85 4803>=0;8 8 A2O78 -->
  <g>
    <line class="hidden" x1="150" y1="168" x2="190" y2="174" />
    <line class="hidden" x1="190" y1="174" x2="250" y2="168" />
    <line class="hidden" x1="130" y1="158" x2="190" y2="154" />
    <line class="hidden" x1="190" y1="154" x2="250" y2="148" />
  </g>

  <!-- >4C;L=K9 C75; A>548=5=8O (C25;8G5==K9 D@03<5=B A;520 2=87C) -->
  <g transform="translate(-60,10)">
    <!-- 2=5H=89 ?@O<>C3>;L=8: A:>H5==>9 @0<:8 -->
    <path
      class="contour"
      d="
        M120 200
        L140 190
        H180
        L200 200
        L180 210
        H140
        Z"
    />
    <!-- A5G5=85 ;52>9 AB>9:8 -->
    <path
      class="section"
      d="
        M140 190
        L148 186
        L148 204
        L140 208
        Z"
    />
    <!-- A5G5=85 =86=59 10;:8 -->
    <path
      class="section"
      d="
        M148 204
        L172 204
        L180 208
        L156 208
        Z"
    />
    <!-- A:@KBK5 4803>=0;L=K5 A2O78 -->
    <line class="hidden" x1="148" y1="186" x2="172" y2="204" />
  </g>

  <!--  07<5@K <>4C;L=>9 @0<K -->
  <g>
    <!-- H8@8=0 =86=53> <>4C;O -->
    <line class="dim" x1="90" y1="230" x2="320" y2="230" />
    <polygon class="dim-arrow" points="90,230 98,226 98,234" />
    <polygon class="dim-arrow" points="320,230 312,226 312,234" />
    <line class="dim" x1="90" y1="234" x2="90" y2="222" />
    <line class="dim" x1="320" y1="234" x2="320" y2="222" />
    <text class="dim-text" x="205" y="222" text-anchor="middle">L</text>
  </g>

  <g>
    <!-- 2KA>B0 @0<K -->
    <line class="dim" x1="80" y1="150" x2="80" y2="220" />
    <polygon class="dim-arrow" points="80,150 76,158 84,158" />
    <polygon class="dim-arrow" points="80,220 76,212 84,212" />
    <line class="dim" x1="74" y1="150" x2="86" y2="150" />
    <line class="dim" x1="74" y1="220" x2="86" y2="220" />
    <text class="dim-text" x="86" y="190" text-anchor="start">H</text>
  </g>

  <g>
    <!-- H03 <>4C;59 -->
    <line class="dim" x1="130" y1="140" x2="190" y2="140" />
    <polygon class="dim-arrow" points="130,140 138,136 138,144" />
    <polygon class="dim-arrow" points="190,140 182,136 182,144" />
    <line class="dim" x1="130" y1="144" x2="130" y2="132" />
    <line class="dim" x1="190" y1="144" x2="190" y2="132" />
    <text class="dim-text" x="160" y="132" text-anchor="middle">S</text>
  </g>

  <!-- A8 >A=>2=KE <>4C;59 -->
  <g opacity="0.7">
    <line class="centerline" x1="150" y1="150" x2="150" y2="220" />
    <line class="centerline" x1="210" y1="150" x2="210" y2="220" />
    <line class="centerline" x1="270" y1="150" x2="270" y2="220" />
  </g>
</svg>

