<svg viewBox="0 0 420 260" xmlns="http://www.w3.org/2000/svg">
  <defs>
    <style>
      .bg { fill: #05070a; }
      .grid-fine { stroke: #1d2f3f; stroke-width: 0.25; }
      .grid-major { stroke: #1d2f3f; stroke-width: 0.5; }
      .contour { fill: none; stroke: #6fa8ff; stroke-width: 2; stroke-linecap: round; stroke-linejoin: round; }
      .hidden { fill: none; stroke: #6fa8ff; stroke-width: 1; stroke-dasharray: 6 3; }
      .dim { fill: none; stroke: #6fa8ff; stroke-width: 1; stroke-linecap: round; }
      .dim-arrow { fill: #6fa8ff; }
      .dim-text { fill: #6fa8ff; font-family: "SF Mono", monospace; font-size: 9px; }
      .axis { stroke: #6fa8ff; stroke-width: 0.6; stroke-dasharray: 6 3; }
    </style>
  </defs>

  <rect class="bg" x="0" y="0" width="420" height="260" />

  <!-- !5B:0 -->
  <g opacity="0.35">
    <g class="grid-fine">
      <line x1="20" y1="60" x2="20" y2="220" />
      <line x1="40" y1="60" x2="40" y2="220" />
      <line x1="60" y1="60" x2="60" y2="220" />
      <line x1="80" y1="60" x2="80" y2="220" />
      <line x1="100" y1="60" x2="100" y2="220" />
      <line x1="120" y1="60" x2="120" y2="220" />
      <line x1="140" y1="60" x2="140" y2="220" />
      <line x1="160" y1="60" x2="160" y2="220" />
      <line x1="180" y1="60" x2="180" y2="220" />
      <line x1="200" y1="60" x2="200" y2="220" />
      <line x1="220" y1="60" x2="220" y2="220" />
      <line x1="240" y1="60" x2="240" y2="220" />
      <line x1="260" y1="60" x2="260" y2="220" />
      <line x1="280" y1="60" x2="280" y2="220" />
      <line x1="300" y1="60" x2="300" y2="220" />
      <line x1="320" y1="60" x2="320" y2="220" />
      <line x1="340" y1="60" x2="340" y2="220" />
      <line x1="360" y1="60" x2="360" y2="220" />
      <line x1="380" y1="60" x2="380" y2="220" />
      <line x1="400" y1="60" x2="400" y2="220" />

      <line x1="20" y1="80" x2="400" y2="80" />
      <line x1="20" y1="100" x2="400" y2="100" />
      <line x1="20" y1="120" x2="400" y2="120" />
      <line x1="20" y1="140" x2="400" y2="140" />
      <line x1="20" y1="160" x2="400" y2="160" />
      <line x1="20" y1="180" x2="400" y2="180" />
      <line x1="20" y1="200" x2="400" y2="200" />
    </g>
    <g class="grid-major">
      <line x1="60" y1="60" x2="60" y2="220" />
      <line x1="140" y1="60" x2="140" y2="220" />
      <line x1="220" y1="60" x2="220" y2="220" />
      <line x1="300" y1="60" x2="300" y2="220" />
      <line x1="380" y1="60" x2="380" y2="220" />

      <line x1="20" y1="100" x2="400" y2="100" />
      <line x1="20" y1="160" x2="400" y2="160" />
      <line x1="20" y1="200" x2="400" y2="200" />
    </g>
  </g>

  <!-- (B0=35=F8@:C;L, 1>:>2>9 284 (284 =0 B>@5F) -->

  <!-- "5;> HB0=38 (B>;I8=0 ?> 2KA>B5) -->
  <g>
    <rect class="contour" x="80" y="130" width="220" height="10" />
  </g>

  <!-- 520O 3C1:0 (1>:>2>9 ?@>D8;L) -->
  <g>
    <path
      class="contour"
      d="
        M80 140
        H68
        V118
        H90
        V126
        H80
        Z"
    />
    <!-- <0;0O 25@E=OO 3C1:0 (2=CB@5==OO) -->
    <path
      class="contour"
      d="
        M80 118
        H72
        V108
        H88
        V112
        H80
        Z"
    />
  </g>

  <!-- >4286=0O :0@5B:0 2 1>:>2>< 2845 -->
  <g>
    <!-- :>@?CA :0@5B:8 -->
    <rect class="contour" x="150" y="124" width="40" height="22" rx="2" ry="2" />

    <!-- 28=B D8:A0F88 (1>:>2>9 F8;8=4@) -->
    <circle class="contour" cx="170" cy="135" r="5" />
    <circle class="hidden" cx="170" cy="135" r="2" />

    <!-- >:=> ;8<10 (:0: C3;C1;5=85) -->
    <rect class="hidden" x="154" y="128" width="32" height="10" />
  </g>

  <!-- @020O 3C1:0 (1>:>2>9 ?@>D8;L) -->
  <g>
    <path
      class="contour"
      d="
        M300 140
        H312
        V118
        H290
        V126
        H300
        Z"
    />
    <!-- <0;0O 25@E=OO 3C1:0 -->
    <path
      class="contour"
      d="
        M300 118
        H308
        V108
        H292
        V112
        H300
        Z"
    />
  </g>

  <!-- ;C18=><5@ (284 A1>:C, G0AB8G=> A:@KB) -->
  <g>
    <line class="hidden" x1="200" y1="140" x2="200" y2="180" />
    <line class="hidden" x1="198" y1="180" x2="202" y2="180" />
  </g>

  <!--  C:>OBL/:>@?CA 8=48:0B>@0 (A1>:C) -->
  <g>
    <rect class="contour" x="140" y="110" width="24" height="10" />
  </g>

  <!--  07<5@K (B>;I8=0 HB0=38, 2KA>B0 3C1>:) -->
  <g>
    <!-- B>;I8=0 HB0=38 -->
    <line class="dim" x1="306" y1="130" x2="306" y2="140" />
    <polygon class="dim-arrow" points="306,130 302,138 310,138" />
    <polygon class="dim-arrow" points="306,140 302,132 310,132" />
    <line class="dim" x1="300" y1="130" x2="312" y2="130" />
    <line class="dim" x1="300" y1="140" x2="312" y2="140" />
    <text class="dim-text" x="312" y="136" text-anchor="start">t</text>
  </g>

  <g>
    <!-- 2KA>B0 1>;LH>9 3C1:8 -->
    <line class="dim" x1="60" y1="118" x2="60" y2="140" />
    <polygon class="dim-arrow" points="60,118 56,126 64,126" />
    <polygon class="dim-arrow" points="60,140 56,132 64,132" />
    <line class="dim" x1="54" y1="118" x2="66" y2="118" />
    <line class="dim" x1="54" y1="140" x2="66" y2="140" />
    <text class="dim-text" x="66" y="132" text-anchor="start">H1</text>
  </g>

  <g>
    <!-- 2KA>B0 <0;>9 3C1:8 -->
    <line class="dim" x1="60" y1="108" x2="60" y2="118" />
    <polygon class="dim-arrow" points="60,108 56,116 64,116" />
    <polygon class="dim-arrow" points="60,118 56,110 64,110" />
    <line class="dim" x1="54" y1="108" x2="66" y2="108" />
    <line class="dim" x1="54" y1="118" x2="66" y2="118" />
    <text class="dim-text" x="66" y="114" text-anchor="start">H2</text>
  </g>

  <!-- AL 8=AB@C<5=B0 -->
  <g opacity="0.7">
    <line class="axis" x1="210" y1="100" x2="210" y2="200" />
  </g>
</svg>

