<svg viewBox="0 0 420 260" xmlns="http://www.w3.org/2000/svg">
  <defs>
    <style>
      .bg { fill: #05070a; }
      .grid-fine { stroke: #1d2f3f; stroke-width: 0.25; }
      .grid-major { stroke: #1d2f3f; stroke-width: 0.5; }
      .contour { fill: none; stroke: #6fa8ff; stroke-width: 2; stroke-linecap: round; stroke-linejoin: round; }
      .hidden { fill: none; stroke: #6fa8ff; stroke-width: 1; stroke-dasharray: 6 3; }
      .section { fill: rgba(111, 168, 255, 0.18); stroke: #6fa8ff; stroke-width: 1.2; }
      .dim { fill: none; stroke: #6fa8ff; stroke-width: 1; stroke-linecap: round; }
      .dim-arrow { fill: #6fa8ff; }
      .dim-text { fill: #6fa8ff; font-family: "SF Mono", monospace; font-size: 9px; }
      .axis { stroke: #6fa8ff; stroke-width: 0.6; stroke-dasharray: 6 3; }
      .centerline { stroke: #6fa8ff; stroke-width: 0.8; stroke-dasharray: 4 3; }
    </style>
  </defs>

  <rect class="bg" x="0" y="0" width="420" height="260" />

  <!-- !5B:0 -->
  <g opacity="0.35">
    <g class="grid-fine">
      <line x1="20" y1="30" x2="20" y2="230" />
      <line x1="40" y1="30" x2="40" y2="230" />
      <line x1="60" y1="30" x2="60" y2="230" />
      <line x1="80" y1="30" x2="80" y2="230" />
      <line x1="100" y1="30" x2="100" y2="230" />
      <line x1="120" y1="30" x2="120" y2="230" />
      <line x1="140" y1="30" x2="140" y2="230" />
      <line x1="160" y1="30" x2="160" y2="230" />
      <line x1="180" y1="30" x2="180" y2="230" />
      <line x1="200" y1="30" x2="200" y2="230" />
      <line x1="220" y1="30" x2="220" y2="230" />
      <line x1="240" y1="30" x2="240" y2="230" />
      <line x1="260" y1="30" x2="260" y2="230" />
      <line x1="280" y1="30" x2="280" y2="230" />
      <line x1="300" y1="30" x2="300" y2="230" />
      <line x1="320" y1="30" x2="320" y2="230" />
      <line x1="340" y1="30" x2="340" y2="230" />
      <line x1="360" y1="30" x2="360" y2="230" />
      <line x1="380" y1="30" x2="380" y2="230" />
      <line x1="400" y1="30" x2="400" y2="230" />

      <line x1="20" y1="40" x2="400" y2="40" />
      <line x1="20" y1="60" x2="400" y2="60" />
      <line x1="20" y1="80" x2="400" y2="80" />
      <line x1="20" y1="100" x2="400" y2="100" />
      <line x1="20" y1="120" x2="400" y2="120" />
      <line x1="20" y1="140" x2="400" y2="140" />
      <line x1="20" y1="160" x2="400" y2="160" />
      <line x1="20" y1="180" x2="400" y2="180" />
      <line x1="20" y1="200" x2="400" y2="200" />
      <line x1="20" y1="220" x2="400" y2="220" />
    </g>
    <g class="grid-major">
      <line x1="60" y1="30" x2="60" y2="230" />
      <line x1="140" y1="30" x2="140" y2="230" />
      <line x1="220" y1="30" x2="220" y2="230" />
      <line x1="300" y1="30" x2="300" y2="230" />
      <line x1="380" y1="30" x2="380" y2="230" />

      <line x1="20" y1="60" x2="400" y2="60" />
      <line x1="20" y1="120" x2="400" y2="120" />
      <line x1="20" y1="180" x2="400" y2="180" />
      <line x1="20" y1="220" x2="400" y2="220" />
    </g>
  </g>

  <!-- A520O ;8=8O -->
  <line class="axis" x1="210" y1="30" x2="210" y2="230" />

  <!-- 3D-C75;: :>@?CA =0?@02;ONI59 :0@5B:8 A> A:>H5==K<8 AB>@>=0<8 8 "->1@07=K< ?07>< -->

  <!-- A=>20=85 :>@?CA0 (0:A>=><5B@8O) -->
  <g>
    <!-- 25@E=OO 3@0=L >A=>20=8O -->
    <path
      class="contour"
      d="
        M120 170
        L190 140
        H280
        L210 170
        Z"
    />
    <!-- ?5@54=OO 3@0=L -->
    <path
      class="contour"
      d="
        M120 170
        V210
        L210 240
        V200
        Z"
    />
    <!-- 1>:>20O 3@0=L -->
    <path
      class="contour"
      d="
        M210 170
        L280 140
        V180
        L210 210
        Z"
    />
  </g>

  <!-- "->1@07=K9 ?07 (?>;C@07@57, 70;82:0 ?> A5G5=8N) -->
  <g>
    <!-- A5G5=85 "-?070 -->
    <path
      class="section"
      d="
        M165 170
        L195 156
        H225
        L255 170
        L245 176
        H205
        L175 190
        Z"
    />

    <!-- A:@KBK9 :>=BC@ 4=0 ?070 -->
    <path
      class="hidden"
      d="
        M175 190
        L205 176
        H245"
    />
  </g>

  <!-- >:>2K5 A:>H5==K5 AB5=:8 (@51@0 =0?@02;ONI59) -->
  <g>
    <path
      class="contour"
      d="
        M135 166
        L155 154
        L165 156
        L145 168
        Z"
    />
    <path
      class="contour"
      d="
        M265 146
        L245 154
        L255 156
        L275 148
        Z"
    />
  </g>

  <!-- >=B06=K5 >B25@AB8O 2 >A=>20=88 -->
  <g>
    <circle class="hidden" cx="150" cy="188" r="4" />
    <circle class="hidden" cx="230" cy="208" r="4" />
    <circle class="hidden" cx="260" cy="190" r="4" />
  </g>

  <!--  07<5@K ?> >A=>20=8N -->
  <g>
    <!-- 4;8=0 >A=>20=8O 2 ?@>5:F88 -->
    <line class="dim" x1="120" y1="220" x2="280" y2="220" />
    <polygon class="dim-arrow" points="120,220 128,216 128,224" />
    <polygon class="dim-arrow" points="280,220 272,216 272,224" />
    <line class="dim" x1="120" y1="224" x2="120" y2="212" />
    <line class="dim" x1="280" y1="224" x2="280" y2="212" />
    <text class="dim-text" x="200" y="212" text-anchor="middle">L</text>
  </g>

  <g>
    <!-- 2KA>B0 :>@?CA0 -->
    <line class="dim" x1="110" y1="170" x2="110" y2="210" />
    <polygon class="dim-arrow" points="110,170 106,178 114,178" />
    <polygon class="dim-arrow" points="110,210 106,202 114,202" />
    <line class="dim" x1="104" y1="170" x2="116" y2="170" />
    <line class="dim" x1="104" y1="210" x2="116" y2="210" />
    <text class="dim-text" x="116" y="194" text-anchor="start">H</text>
  </g>

  <!--  07<5@K "-?070 -->
  <g>
    <!-- H8@8=0 25@E=59 ?>;:8 -->
    <line class="dim" x1="165" y1="148" x2="255" y2="148" />
    <polygon class="dim-arrow" points="165,148 173,144 173,152" />
    <polygon class="dim-arrow" points="255,148 247,144 247,152" />
    <line class="dim" x1="165" y1="152" x2="165" y2="140" />
    <line class="dim" x1="255" y1="152" x2="255" y2="140" />
    <text class="dim-text" x="210" y="140" text-anchor="middle">B</text>
  </g>

  <g>
    <!-- 3;C18=0 ?070 -->
    <line class="dim" x1="260" y1="156" x2="260" y2="190" />
    <polygon class="dim-arrow" points="260,156 256,164 264,164" />
    <polygon class="dim-arrow" points="260,190 256,182 264,182" />
    <line class="dim" x1="254" y1="156" x2="266" y2="156" />
    <line class="dim" x1="254" y1="190" x2="266" y2="190" />
    <text class="dim-text" x="266" y="176" text-anchor="start">T</text>
  </g>

  <!-- A8 =0?@02;ONI8E -->
  <g opacity="0.7">
    <line class="centerline" x1="210" y1="150" x2="210" y2="220" />
  </g>
</svg>

