<svg viewBox="0 0 420 260" xmlns="http://www.w3.org/2000/svg">
  <defs>
    <style>
      .bg { fill: #05070a; }
      .grid-fine { stroke: #1d2f3f; stroke-width: 0.25; }
      .grid-major { stroke: #1d2f3f; stroke-width: 0.5; }
      .contour { fill: none; stroke: #6fa8ff; stroke-width: 2; stroke-linecap: round; stroke-linejoin: round; }
      .hidden { fill: none; stroke: #6fa8ff; stroke-width: 1; stroke-dasharray: 6 3; }
      .dim { fill: none; stroke: #6fa8ff; stroke-width: 1; stroke-linecap: round; }
      .dim-arrow { fill: #6fa8ff; }
      .dim-text { fill: #6fa8ff; font-family: "SF Mono", monospace; font-size: 10px; }
      .axis { stroke: #6fa8ff; stroke-width: 0.6; stroke-dasharray: 6 3; }
      .centerline { stroke: #6fa8ff; stroke-width: 0.8; stroke-dasharray: 4 3; }
    </style>
  </defs>

  <rect class="bg" x="0" y="0" width="420" height="260" />

  <!-- !5B:0 -->
  <g opacity="0.4">
    <g class="grid-fine">
      <line x1="20" y1="20" x2="20" y2="240" />
      <line x1="40" y1="20" x2="40" y2="240" />
      <line x1="60" y1="20" x2="60" y2="240" />
      <line x1="80" y1="20" x2="80" y2="240" />
      <line x1="100" y1="20" x2="100" y2="240" />
      <line x1="120" y1="20" x2="120" y2="240" />
      <line x1="140" y1="20" x2="140" y2="240" />
      <line x1="160" y1="20" x2="160" y2="240" />
      <line x1="180" y1="20" x2="180" y2="240" />
      <line x1="200" y1="20" x2="200" y2="240" />
      <line x1="220" y1="20" x2="220" y2="240" />
      <line x1="240" y1="20" x2="240" y2="240" />
      <line x1="260" y1="20" x2="260" y2="240" />
      <line x1="280" y1="20" x2="280" y2="240" />
      <line x1="300" y1="20" x2="300" y2="240" />
      <line x1="320" y1="20" x2="320" y2="240" />
      <line x1="340" y1="20" x2="340" y2="240" />
      <line x1="360" y1="20" x2="360" y2="240" />
      <line x1="380" y1="20" x2="380" y2="240" />
      <line x1="400" y1="20" x2="400" y2="240" />

      <line x1="20" y1="40" x2="400" y2="40" />
      <line x1="20" y1="60" x2="400" y2="60" />
      <line x1="20" y1="80" x2="400" y2="80" />
      <line x1="20" y1="100" x2="400" y2="100" />
      <line x1="20" y1="120" x2="400" y2="120" />
      <line x1="20" y1="140" x2="400" y2="140" />
      <line x1="20" y1="160" x2="400" y2="160" />
      <line x1="20" y1="180" x2="400" y2="180" />
      <line x1="20" y1="200" x2="400" y2="200" />
      <line x1="20" y1="220" x2="400" y2="220" />
    </g>
    <g class="grid-major">
      <line x1="60" y1="20" x2="60" y2="240" />
      <line x1="140" y1="20" x2="140" y2="240" />
      <line x1="220" y1="20" x2="220" y2="240" />
      <line x1="300" y1="20" x2="300" y2="240" />
      <line x1="380" y1="20" x2="380" y2="240" />

      <line x1="20" y1="60" x2="400" y2="60" />
      <line x1="20" y1="120" x2="400" y2="120" />
      <line x1="20" y1="180" x2="400" y2="180" />
      <line x1="20" y1="220" x2="400" y2="220" />
    </g>
  </g>

  <!-- AL A8<<5B@88 =0AB5==>3> :0H?> -->
  <line class="axis" x1="210" y1="30" x2="210" y2="220" />

  <!-- 0AB5==K9 :0H?>-:0@<0=: 284 A?5@548 -->
  <g>
    <!-- ?;>A:>ABL :@5?;5=8O : AB5=5 -->
    <rect class="contour" x="130" y="60" width="160" height="120" rx="4" ry="4" />

    <!-- 2K@57 ?>4 :0@<0= -->
    <path
      class="contour"
      d="
        M145 80
        H275
        V150
        Q260 170 210 176
        Q160 170 145 150
        Z"
    />

    <!-- 2=CB@5==OO AB5=:0 :0@<0=0 (42>9=0O) -->
    <path
      class="contour"
      d="
        M155 88
        H265
        V146
        Q252 162 210 166
        Q168 162 155 146
        Z"
    />

    <!-- 4@5=06=K5 >B25@AB8O 2 =86=59 G0AB8 -->
    <circle class="hidden" cx="180" cy="164" r="2" />
    <circle class="hidden" cx="210" cy="166" r="2" />
    <circle class="hidden" cx="240" cy="164" r="2" />

    <!-- CA8;5=8O C 1>:>2KE AB5=>: -->
    <line class="hidden" x1="155" y1="88" x2="155" y2="146" />
    <line class="hidden" x1="265" y1="88" x2="265" y2="146" />
  </g>

  <!-- @5?Q6=K5 M;5<5=BK (>B25@AB8O ?>4 HC@C?K) -->
  <g>
    <circle class="contour" cx="150" cy="70" r="4" />
    <circle class="hidden" cx="150" cy="70" r="2" />

    <circle class="contour" cx="270" cy="70" r="4" />
    <circle class="hidden" cx="270" cy="70" r="2" />

    <circle class="contour" cx="150" cy="170" r="4" />
    <circle class="hidden" cx="150" cy="170" r="2" />

    <circle class="contour" cx="270" cy="170" r="4" />
    <circle class="hidden" cx="270" cy="170" r="2" />
  </g>

  <!--  07<5@K ?> 3010@8BC ?;0AB8=K -->
  <g>
    <line class="dim" x1="130" y1="52" x2="290" y2="52" />
    <polygon class="dim-arrow" points="130,52 138,48 138,56" />
    <polygon class="dim-arrow" points="290,52 282,48 282,56" />
    <line class="dim" x1="130" y1="56" x2="130" y2="44" />
    <line class="dim" x1="290" y1="56" x2="290" y2="44" />
    <text class="dim-text" x="210" y="42" text-anchor="middle">220</text>
  </g>

  <g>
    <line class="dim" x1="300" y1="60" x2="300" y2="180" />
    <polygon class="dim-arrow" points="300,60 296,68 304,68" />
    <polygon class="dim-arrow" points="300,180 296,172 304,172" />
    <line class="dim" x1="294" y1="60" x2="306" y2="60" />
    <line class="dim" x1="294" y1="180" x2="306" y2="180" />
    <text class="dim-text" x="306" y="124" text-anchor="start">120</text>
  </g>

  <!--  07<5@K :0@<0=0 -->
  <g>
    <line class="dim" x1="145" y1="176" x2="275" y2="176" />
    <polygon class="dim-arrow" points="145,176 153,172 153,180" />
    <polygon class="dim-arrow" points="275,176 267,172 267,180" />
    <line class="dim" x1="145" y1="180" x2="145" y2="168" />
    <line class="dim" x1="275" y1="180" x2="275" y2="168" />
    <text class="dim-text" x="210" y="168" text-anchor="middle">200</text>
  </g>


  <!-- >?>;=8B5;L=K5 >A52K5 ;8=88 -->
  <g opacity="0.7">
    <line class="centerline" x1="210" y1="60" x2="210" y2="180" />
    <line class="centerline" x1="180" y1="88" x2="180" y2="166" />
    <line class="centerline" x1="240" y1="88" x2="240" y2="166" />
  </g>
</svg>

