<svg viewBox="0 0 420 260" xmlns="http://www.w3.org/2000/svg">
  <defs>
    <style>
      .bg { fill: #05070a; }
      .grid-fine { stroke: #1d2f3f; stroke-width: 0.25; }
      .grid-major { stroke: #1d2f3f; stroke-width: 0.5; }
      .contour { fill: none; stroke: #6fa8ff; stroke-width: 2; stroke-linecap: round; stroke-linejoin: round; }
      .hidden { fill: none; stroke: #6fa8ff; stroke-width: 1; stroke-dasharray: 6 3; }
      .dim { fill: none; stroke: #6fa8ff; stroke-width: 1; stroke-linecap: round; }
      .dim-arrow { fill: #6fa8ff; }
      .dim-text { fill: #6fa8ff; font-family: "SF Mono", monospace; font-size: 10px; }
      .axis { stroke: #6fa8ff; stroke-width: 0.6; stroke-dasharray: 6 3; }
      .centerline { stroke: #6fa8ff; stroke-width: 0.8; stroke-dasharray: 4 3; }
    </style>
  </defs>

  <rect class="bg" x="0" y="0" width="420" height="260" />

  <!-- !5B:0 -->
  <g opacity="0.4">
    <g class="grid-fine">
      <line x1="20" y1="20" x2="20" y2="240" />
      <line x1="40" y1="20" x2="40" y2="240" />
      <line x1="60" y1="20" x2="60" y2="240" />
      <line x1="80" y1="20" x2="80" y2="240" />
      <line x1="100" y1="20" x2="100" y2="240" />
      <line x1="120" y1="20" x2="120" y2="240" />
      <line x1="140" y1="20" x2="140" y2="240" />
      <line x1="160" y1="20" x2="160" y2="240" />
      <line x1="180" y1="20" x2="180" y2="240" />
      <line x1="200" y1="20" x2="200" y2="240" />
      <line x1="220" y1="20" x2="220" y2="240" />
      <line x1="240" y1="20" x2="240" y2="240" />
      <line x1="260" y1="20" x2="260" y2="240" />
      <line x1="280" y1="20" x2="280" y2="240" />
      <line x1="300" y1="20" x2="300" y2="240" />
      <line x1="320" y1="20" x2="320" y2="240" />
      <line x1="340" y1="20" x2="340" y2="240" />
      <line x1="360" y1="20" x2="360" y2="240" />
      <line x1="380" y1="20" x2="380" y2="240" />
      <line x1="400" y1="20" x2="400" y2="240" />

      <line x1="20" y1="40" x2="400" y2="40" />
      <line x1="20" y1="60" x2="400" y2="60" />
      <line x1="20" y1="80" x2="400" y2="80" />
      <line x1="20" y1="100" x2="400" y2="100" />
      <line x1="20" y1="120" x2="400" y2="120" />
      <line x1="20" y1="140" x2="400" y2="140" />
      <line x1="20" y1="160" x2="400" y2="160" />
      <line x1="20" y1="180" x2="400" y2="180" />
      <line x1="20" y1="200" x2="400" y2="200" />
      <line x1="20" y1="220" x2="400" y2="220" />
    </g>
    <g class="grid-major">
      <line x1="60" y1="20" x2="60" y2="240" />
      <line x1="140" y1="20" x2="140" y2="240" />
      <line x1="220" y1="20" x2="220" y2="240" />
      <line x1="300" y1="20" x2="300" y2="240" />
      <line x1="380" y1="20" x2="380" y2="240" />

      <line x1="20" y1="60" x2="400" y2="60" />
      <line x1="20" y1="120" x2="400" y2="120" />
      <line x1="20" y1="180" x2="400" y2="180" />
      <line x1="20" y1="220" x2="400" y2="220" />
    </g>
  </g>

  <!-- A8 A8<<5B@88 1;>:0 >E;06405<>9 D>@<K -->
  <line class="axis" x1="80" y1="40" x2="80" y2="220" />
  <line class="axis" x1="210" y1="40" x2="210" y2="220" />
  <line class="axis" x1="80" y1="150" x2="340" y2="150" />

  <!-- ;>: ?@5AA-D>@<K 2 ?;0=5 A A8AB5<>9 :0=0;>2 -->
  <g>
    <!-- 2=5H=89 :>=BC@ 1;>:0 -->
    <rect class="contour" x="90" y="70" width="260" height="120" rx="4" ry="4" />

    <!-- :>=BC@ ?>;>AB8 8745;8O (CA;>2=> ?@O<>C3>;L=0O A 70:@C3;5=8O<8) -->
    <path
      class="contour"
      d="
        M130 100
        H310
        Q320 100 325 110
        V130
        Q320 140 310 140
        H130
        Q120 140 115 130
        V110
        Q120 100 130 100
        Z"
    />

    <!-- A8AB5<0 >E;0640NI8E :0=0;>2 (;018@8=B) -->
    <path
      class="hidden"
      d="
        M110 90
        H290
        Q300 90 300 100
        V110
        Q300 120 290 120
        H210
        Q200 120 200 130
        V150
        Q200 160 190 160
        H120
        Q110 160 110 170
        V180
        Q110 190 120 190
        H320"
    />

    <!-- 4>?>;=8B5;L=K5 :0=0;K -->
    <path
      class="hidden"
      d="
        M120 110
        H170
        Q180 110 180 120
        V135
        Q180 145 190 145
        H260
        Q270 145 275 150
        L290 165"
    />
  </g>

  <!-- 0?@02;ONI85 :>;>==K (G5BK@5 3=5740) -->
  <g>
    <circle class="contour" cx="110" cy="90" r="6" />
    <circle class="contour" cx="330" cy="90" r="6" />
    <circle class="contour" cx="110" cy="170" r="6" />
    <circle class="contour" cx="330" cy="170" r="6" />

    <circle class="hidden" cx="110" cy="90" r="3" />
    <circle class="hidden" cx="330" cy="90" r="3" />
    <circle class="hidden" cx="110" cy="170" r="3" />
    <circle class="hidden" cx="330" cy="170" r="3" />
  </g>

  <!--  07<5@K 1;>:0 -->
  <g>
    <!-- H8@8=0 -->
    <line class="dim" x1="90" y1="60" x2="350" y2="60" />
    <polygon class="dim-arrow" points="90,60 98,56 98,64" />
    <polygon class="dim-arrow" points="350,60 342,56 342,64" />
    <line class="dim" x1="90" y1="64" x2="90" y2="52" />
    <line class="dim" x1="350" y1="64" x2="350" y2="52" />
    <text class="dim-text" x="220" y="50" text-anchor="middle">260</text>
  </g>

  <g>
    <!-- 2KA>B0 -->
    <line class="dim" x1="360" y1="70" x2="360" y2="190" />
    <polygon class="dim-arrow" points="360,70 356,78 364,78" />
    <polygon class="dim-arrow" points="360,190 356,182 364,182" />
    <line class="dim" x1="354" y1="70" x2="366" y2="70" />
    <line class="dim" x1="354" y1="190" x2="366" y2="190" />
    <text class="dim-text" x="366" y="132" text-anchor="start">120</text>
  </g>

  <!--  07<5@K ?>;>AB8 -->
  <g>
    <line class="dim" x1="130" y1="96" x2="310" y2="96" />
    <polygon class="dim-arrow" points="130,96 138,92 138,100" />
    <polygon class="dim-arrow" points="310,96 302,92 302,100" />
    <line class="dim" x1="130" y1="100" x2="130" y2="88" />
    <line class="dim" x1="310" y1="100" x2="310" y2="88" />
    <text class="dim-text" x="220" y="86" text-anchor="middle">180</text>
  </g>

  <g>
    <line class="dim" x1="325" y1="100" x2="325" y2="140" />
    <polygon class="dim-arrow" points="325,100 321,108 329,108" />
    <polygon class="dim-arrow" points="325,140 321,132 329,132" />
    <line class="dim" x1="319" y1="100" x2="331" y2="100" />
    <line class="dim" x1="319" y1="140" x2="331" y2="140" />
    <text class="dim-text" x="331" y="124" text-anchor="start">40</text>
  </g>

  <!-- >?>;=8B5;L=K5 >A52K5 ;8=88 -->
  <g opacity="0.7">
    <line class="centerline" x1="170" y1="70" x2="170" y2="190" />
    <line class="centerline" x1="260" y1="70" x2="260" y2="190" />
  </g>
</svg>

