<svg viewBox="0 0 420 260" xmlns="http://www.w3.org/2000/svg">
  <defs>
    <style>
      .bg { fill: #05070a; }
      .grid-fine { stroke: #1d2f3f; stroke-width: 0.25; }
      .grid-major { stroke: #1d2f3f; stroke-width: 0.5; }
      .contour { fill: none; stroke: #6fa8ff; stroke-width: 2; stroke-linecap: round; stroke-linejoin: round; }
      .hidden { fill: none; stroke: #6fa8ff; stroke-width: 1; stroke-dasharray: 6 3; }
      .dim { fill: none; stroke: #6fa8ff; stroke-width: 1; stroke-linecap: round; }
      .dim-arrow { fill: #6fa8ff; }
      .dim-text { fill: #6fa8ff; font-family: "SF Mono", monospace; font-size: 10px; }
      .axis { stroke: #6fa8ff; stroke-width: 0.6; stroke-dasharray: 6 3; }
      .centerline { stroke: #6fa8ff; stroke-width: 0.8; stroke-dasharray: 4 3; }
    </style>
  </defs>

  <rect class="bg" x="0" y="0" width="420" height="260" />

  <!-- !5B:0 -->
  <g opacity="0.4">
    <g class="grid-fine">
      <line x1="20" y1="20" x2="20" y2="240" />
      <line x1="40" y1="20" x2="40" y2="240" />
      <line x1="60" y1="20" x2="60" y2="240" />
      <line x1="80" y1="20" x2="80" y2="240" />
      <line x1="100" y1="20" x2="100" y2="240" />
      <line x1="120" y1="20" x2="120" y2="240" />
      <line x1="140" y1="20" x2="140" y2="240" />
      <line x1="160" y1="20" x2="160" y2="240" />
      <line x1="180" y1="20" x2="180" y2="240" />
      <line x1="200" y1="20" x2="200" y2="240" />
      <line x1="220" y1="20" x2="220" y2="240" />
      <line x1="240" y1="20" x2="240" y2="240" />
      <line x1="260" y1="20" x2="260" y2="240" />
      <line x1="280" y1="20" x2="280" y2="240" />
      <line x1="300" y1="20" x2="300" y2="240" />
      <line x1="320" y1="20" x2="320" y2="240" />
      <line x1="340" y1="20" x2="340" y2="240" />
      <line x1="360" y1="20" x2="360" y2="240" />
      <line x1="380" y1="20" x2="380" y2="240" />
      <line x1="400" y1="20" x2="400" y2="240" />

      <line x1="20" y1="40" x2="400" y2="40" />
      <line x1="20" y1="60" x2="400" y2="60" />
      <line x1="20" y1="80" x2="400" y2="80" />
      <line x1="20" y1="100" x2="400" y2="100" />
      <line x1="20" y1="120" x2="400" y2="120" />
      <line x1="20" y1="140" x2="400" y2="140" />
      <line x1="20" y1="160" x2="400" y2="160" />
      <line x1="20" y1="180" x2="400" y2="180" />
      <line x1="20" y1="200" x2="400" y2="200" />
      <line x1="20" y1="220" x2="400" y2="220" />
    </g>
    <g class="grid-major">
      <line x1="60" y1="20" x2="60" y2="240" />
      <line x1="140" y1="20" x2="140" y2="240" />
      <line x1="220" y1="20" x2="220" y2="240" />
      <line x1="300" y1="20" x2="300" y2="240" />
      <line x1="380" y1="20" x2="380" y2="240" />

      <line x1="20" y1="60" x2="400" y2="60" />
      <line x1="20" y1="120" x2="400" y2="120" />
      <line x1="20" y1="180" x2="400" y2="180" />
      <line x1="20" y1="220" x2="400" y2="220" />
    </g>
  </g>

  <!-- AL A8<<5B@88 ?8I52>3> :>=B59=5@0 -->
  <line class="axis" x1="210" y1="40" x2="210" y2="220" />

  <!-- 8I52>9 :>=B59=5@ A 70IQ;:820NI59AO :@KH:>9: 284 A?5@548 -->
  <g>
    <!-- :>@?CA :>=B59=5@0 -->
    <path
      class="contour"
      d="
        M110 110
        H310
        L300 190
        Q298 200 288 205
        H132
        Q122 200 120 190
        Z"
    />

    <!-- 2=CB@5==OO ;8=8O 1>@B0 -->
    <path
      class="contour"
      d="
        M122 116
        H298
        L290 184
        Q289 190 284 193
        H136
        Q131 190 130 184
        Z"
    />

    <!-- >BD>@<>20==K5 D0A:8 ?> 4=C -->
    <path
      class="hidden"
      d="
        M136 182
        Q173 192 210 192
        Q247 192 284 182"
    />

    <!-- @Q1@0 6QAB:>AB8 =0 4=5 -->
    <line class="hidden" x1="150" y1="176" x2="270" y2="176" />
    <line class="hidden" x1="150" y1="170" x2="270" y2="170" />
  </g>

  <!-- 0IQ;:8 ?> 1>:0< -->
  <g>
    <rect class="contour" x="102" y="112" width="8" height="16" />
    <rect class="contour" x="310" y="112" width="8" height="16" />
    <line class="hidden" x1="106" y1="112" x2="106" y2="128" />
    <line class="hidden" x1="314" y1="112" x2="314" y2="128" />
  </g>

  <!-- @KH:0 :>=B59=5@0 (70:@KB>5 ?>;>65=85) -->
  <g>
    <!-- 2=5H=89 :>=BC@ :@KH:8 -->
    <path
      class="contour"
      d="
        M105 100
        Q110 90 120 88
        H300
        Q310 90 315 100
        Z"
    />

    <!-- 2=CB@5==OO :@><:0 :@KH:8 -->
    <path
      class="hidden"
      d="
        M118 100
        Q122 94 128 92
        H292
        Q298 94 302 100
        Z"
    />

    <!-- @578=>2K9 C?;>B=8B5;L (HB@8E>20O ;8=8O 2=CB@8) -->
    <path
      class="hidden"
      d="
        M130 102
        H290"
    />
  </g>

  <!-- 0<>:-70IQ;:0 A?5@548 (F5=B@0;L=K9) -->
  <g>
    <rect class="contour" x="196" y="104" width="28" height="12" rx="2" ry="2" />
    <line class="hidden" x1="210" y1="104" x2="210" y2="116" />
  </g>

  <!--  07<5@K ?> 3010@8BC :>@?CA0 -->
  <g>
    <!-- H8@8=0 -->
    <line class="dim" x1="110" y1="102" x2="310" y2="102" />
    <polygon class="dim-arrow" points="110,102 118,98 118,106" />
    <polygon class="dim-arrow" points="310,102 302,98 302,106" />
    <line class="dim" x1="110" y1="106" x2="110" y2="94" />
    <line class="dim" x1="310" y1="106" x2="310" y2="94" />
    <text class="dim-text" x="210" y="92" text-anchor="middle">300</text>
  </g>

  <g>
    <!-- 2KA>B0 :>@?CA0 -->
    <line class="dim" x1="320" y1="110" x2="320" y2="205" />
    <polygon class="dim-arrow" points="320,110 316,118 324,118" />
    <polygon class="dim-arrow" points="320,205 316,197 324,197" />
    <line class="dim" x1="314" y1="110" x2="326" y2="110" />
    <line class="dim" x1="314" y1="205" x2="326" y2="205" />
    <text class="dim-text" x="326" y="162" text-anchor="start">150</text>
  </g>

  <!--  07<5@K :@KH:8 -->
  <g>
    <!-- B>;I8=0 :@KH:8 -->
    <line class="dim" x1="300" y1="88" x2="300" y2="100" />
    <polygon class="dim-arrow" points="300,88 296,96 304,96" />
    <polygon class="dim-arrow" points="300,100 296,92 304,92" />
    <line class="dim" x1="294" y1="88" x2="306" y2="88" />
    <line class="dim" x1="294" y1="100" x2="306" y2="100" />
    <text class="dim-text" x="306" y="96" text-anchor="start">12</text>
  </g>

  <!-- >?>;=8B5;L=K5 >A52K5 ;8=88 -->
  <g opacity="0.7">
    <line class="centerline" x1="210" y1="100" x2="210" y2="205" />
  </g>
</svg>

